<?xml version="1.0" encoding="UTF-8"?>
<svg id="Capa_2" data-name="Capa 2" xmlns="http://www.w3.org/2000/svg" viewBox="0 0 3445.28 312.64">
  <defs>
    <style>
      .cls-1 {
        fill: #191919;
      }
    </style>
  </defs>
  <g id="Capa_1-2" data-name="Capa 1">
    <g>
      <path class="cls-1" d="m151.48,158.3c7.73,10.01,11.83,20.93,11.83,33.66,0,11.37-2.73,21.83-8.64,30.48-5.46,8.64-13.65,15.47-24.56,20.47-10.92,5-23.2,7.28-37.76,7.28H0V35.48h88.7c14.56,0,27.29,2.27,37.76,7.28,10.46,5,18.65,11.37,24.11,19.56,5.46,8.19,8.19,17.74,8.19,28.66,0,12.74-3.18,23.2-10.01,31.39-6.82,8.19-15.47,14.56-26.84,17.74,11.83,2.27,21.83,8.19,29.57,18.2h0Zm-108.26-34.12h39.58c10.01,0,18.2-2.27,23.65-6.82,5.46-4.55,8.19-11.37,8.19-20.02s-2.73-15.47-8.19-20.02c-5.46-4.55-13.65-7.28-23.65-7.28h-39.58v54.13h0Zm67.78,83.7c5.91-5,8.64-11.83,8.64-20.93s-3.18-16.38-9.1-21.83c-6.37-5.46-14.56-7.73-25.02-7.73h-42.3v57.77h43.21c10.46,0,18.65-2.27,24.56-7.28h0Z"/>
      <path class="cls-1" d="m333.45,79.61v170.58h-43.21v-21.38c-5.46,7.28-12.74,13.19-21.83,17.29-9.1,4.09-18.65,6.37-29.11,6.37-13.19,0-25.02-2.73-35.48-8.64-10.01-5.46-18.2-14.1-24.11-25.02-5.91-10.92-8.64-24.11-8.64-39.12v-100.08h43.21v93.71c0,13.65,3.18,24.11,10.01,31.39,6.82,7.28,15.92,10.92,27.75,10.92s21.38-3.64,28.2-10.92c6.82-7.28,10.01-17.74,10.01-31.39v-93.71h43.21Z"/>
      <path class="cls-1" d="m509.75,177.86h-124.64c.91,12.28,5.46,21.83,12.74,29.11,7.28,7.28,16.83,10.46,28.2,10.46,15.92,0,27.29-6.82,34.12-20.47h46.4c-5,16.38-14.56,30.02-28.2,40.49-14.1,10.46-30.93,15.92-51.4,15.92-16.38,0-30.93-3.64-44.12-10.92-13.19-7.28-23.2-17.74-30.48-30.93-7.28-13.19-10.92-28.66-10.92-46.4s3.64-33.21,10.92-46.4c7.28-13.19,17.29-23.65,30.02-30.93,12.74-7.28,27.75-10.92,44.58-10.92s30.93,3.64,43.67,10.46c12.74,6.82,22.74,16.83,30.02,29.57,7.28,12.74,10.46,27.75,10.46,44.12-.45,6.37-.91,11.83-1.36,16.83Zm-43.67-28.66c-.45-10.92-4.09-20.02-11.83-26.38-7.73-6.82-17.29-10.01-28.66-10.01-10.46,0-19.56,3.18-26.84,9.55-7.28,6.37-11.83,15.47-13.19,26.84h80.52Z"/>
      <path class="cls-1" d="m663.23,96.44c12.74,12.74,18.65,30.93,18.65,53.68v100.08h-43.21v-94.16c0-13.65-3.18-24.11-10.01-31.39-6.82-7.28-15.92-10.92-27.75-10.92s-21.38,3.64-28.2,10.92c-6.82,7.28-10.46,17.74-10.46,31.39v94.16h-43.21V79.61h43.21v21.38c5.91-7.28,13.19-13.19,21.83-17.29,9.1-4.09,18.65-6.37,29.57-6.37,20.47,0,37.3,6.37,49.58,19.11Z"/>
      <path class="cls-1" d="m700.17,118.73c6.82-13.19,16.38-23.65,28.2-30.93,11.83-7.28,25.02-10.92,39.58-10.92,10.92,0,21.83,2.27,31.84,7.28,10.01,5,18.2,11.37,24.11,19.11V0h43.67v250.65h-43.67v-25.47c-5.46,8.64-12.74,15.01-22.29,20.47-9.55,5-20.93,7.73-33.66,7.73-14.56,0-27.29-3.64-39.58-10.92-11.83-7.28-21.38-17.74-28.2-31.39-6.82-13.65-10.46-29.11-10.46-46.4s3.64-32.75,10.46-45.94h0Zm117.82,19.56c-4.09-7.73-9.55-13.19-16.38-17.29-6.82-4.09-14.56-5.91-22.29-5.91s-15.47,1.82-22.29,5.91c-6.82,4.09-12.28,9.55-16.38,17.29-4.09,7.73-6.37,16.38-6.37,26.38s2.27,19.11,6.37,26.84c4.09,7.73,9.55,13.65,16.38,17.74,6.82,4.09,14.1,6.37,21.83,6.37s15.47-1.82,22.29-5.91c6.82-4.09,12.74-9.55,16.38-17.29,3.64-7.73,6.37-16.38,6.37-26.84s-1.82-20.02-5.91-27.29h0Z"/>
      <path class="cls-1" d="m935.47,35.48l-55.04,32.3v-30.93L935.47,0v35.48Zm-11.83,44.12v170.58h-43.21V79.61h43.21Z"/>
      <path class="cls-1" d="m942.2,118.73c6.82-13.19,16.38-23.65,28.2-30.93,11.83-7.28,25.02-10.92,39.58-10.92,12.74,0,23.65,2.73,33.21,7.73,9.55,5,17.29,11.83,22.74,19.56v-24.11h43.21v170.58h-43.21v-25.02c-5.46,8.19-13.19,14.56-22.74,20.02-9.55,5.46-20.93,7.73-33.66,7.73-14.56,0-27.29-3.64-39.12-10.92-11.83-7.28-20.93-17.74-28.2-31.39-7.28-13.65-10.46-29.11-10.46-46.4s3.64-32.75,10.46-45.94h0Zm114.63,19.56c-4.09-7.73-9.55-13.19-16.38-17.29-6.82-4.09-14.56-5.91-22.29-5.91s-15.47,1.82-22.29,5.91c-6.82,4.09-12.28,9.55-16.38,17.29-4.09,7.73-6.37,16.38-6.37,26.38s2.27,19.11,6.37,26.84c4.09,7.73,9.55,13.65,16.38,17.74,6.82,4.09,14.1,6.37,21.83,6.37s15.47-1.82,22.29-5.91c6.82-4.09,12.74-9.55,16.38-17.29,3.64-7.73,6.37-16.38,6.37-26.84s-1.82-20.02-5.91-27.29h0Z"/>
      <g>
        <path class="cls-1" d="m1209.95,89.18v71.17h68.01v9.23h-68.01v71.65h75.3v9.23h-86.23V79.95h86.23v9.23h-75.3Z"/>
        <path class="cls-1" d="m1385.56,250.46l-37.16-58.05-36.44,58.05h-11.66l42.5-66.55-42.02-65.34h12.39l36.68,56.84,35.95-56.84h11.41l-42.02,65.58,42.75,66.31h-12.39Z"/>
        <path class="cls-1" d="m1451.03,127.07c9.79-6.8,21.65-10.2,35.58-10.2,12.3,0,23.28,2.76,32.91,8.26,9.63,5.51,17.16,13.36,22.59,23.56,5.42,10.2,8.14,22.11,8.14,35.71s-2.72,25.55-8.14,35.83c-5.42,10.29-12.95,18.22-22.59,23.8-9.64,5.59-20.61,8.38-32.91,8.38-13.76,0-25.55-3.43-35.34-10.32-9.8-6.88-16.64-15.58-20.53-26.11v96.67h-10.93V118.57h10.93v34.73c3.72-10.69,10.48-19.43,20.28-26.23Zm81.24,26.23c-4.53-8.74-10.89-15.42-19.06-20.04-8.18-4.62-17.61-6.92-28.3-6.92s-19.43,2.39-27.69,7.16c-8.26,4.78-14.74,11.58-19.43,20.4-4.7,8.83-7.04,18.99-7.04,30.48s2.34,21.9,7.04,30.73c4.7,8.82,11.18,15.63,19.43,20.4,8.26,4.77,17.49,7.16,27.69,7.16s20.12-2.35,28.3-7.05c8.17-4.69,14.53-11.41,19.06-20.16,4.53-8.74,6.81-19.1,6.81-31.09s-2.27-22.34-6.81-31.09Z"/>
        <path class="cls-1" d="m1699.14,188.77h-113.91c.32,11.82,2.92,21.78,7.77,29.87,4.86,8.1,11.25,14.18,19.19,18.22,7.93,4.05,16.6,6.07,25.99,6.07,12.95,0,23.8-3.19,32.55-9.6,8.75-6.39,14.25-15.1,16.52-26.11h11.41c-2.59,13.44-9.23,24.33-19.92,32.67-10.69,8.34-24.21,12.51-40.56,12.51-12.31,0-23.32-2.75-33.03-8.26-9.72-5.51-17.33-13.4-22.83-23.68-5.51-10.28-8.26-22.3-8.26-36.07s2.72-25.74,8.14-35.95c5.42-10.2,13-18.01,22.71-23.44,9.72-5.42,20.81-8.13,33.28-8.13s23.6,2.71,32.91,8.13c9.31,5.43,16.39,12.64,21.25,21.62,4.86,8.99,7.29,18.67,7.29,29.03,0,5.82-.17,10.2-.49,13.11Zm-16.64-38.62c-4.62-8.09-10.9-14.12-18.83-18.09-7.93-3.97-16.51-5.95-25.74-5.95s-17.78,1.98-25.63,5.95c-7.86,3.97-14.25,10-19.19,18.09-4.94,8.1-7.57,17.98-7.89,29.63h103.47c.48-11.66-1.58-21.54-6.2-29.63Z"/>
        <path class="cls-1" d="m1758.4,123.55c8.26-5.11,18.79-7.66,31.57-7.66v11.41h-3.64c-12.95,0-23.73,3.69-32.31,11.05-8.58,7.37-12.87,19.39-12.87,36.07v76.03h-10.93V118.57h10.93v27.2c3.23-9.71,8.99-17.12,17.24-22.22Z"/>
        <path class="cls-1" d="m1811.84,86.63c-1.78-1.7-2.67-4.01-2.67-6.92,0-2.76.88-5.02,2.67-6.81,1.78-1.78,3.97-2.67,6.56-2.67s4.78.89,6.56,2.67c1.78,1.79,2.67,4.05,2.67,6.81,0,2.92-.89,5.22-2.67,6.92-1.78,1.7-3.97,2.55-6.56,2.55s-4.77-.85-6.56-2.55Zm11.9,31.94v131.89h-10.93V118.57h10.93Z"/>
        <path class="cls-1" d="m1979.68,188.77h-113.91c.32,11.82,2.92,21.78,7.77,29.87,4.86,8.1,11.25,14.18,19.19,18.22,7.93,4.05,16.6,6.07,25.99,6.07,12.95,0,23.8-3.19,32.55-9.6,8.75-6.39,14.25-15.1,16.52-26.11h11.41c-2.59,13.44-9.23,24.33-19.92,32.67-10.69,8.34-24.21,12.51-40.56,12.51-12.31,0-23.32-2.75-33.03-8.26-9.72-5.51-17.33-13.4-22.83-23.68-5.51-10.28-8.26-22.3-8.26-36.07s2.72-25.74,8.14-35.95c5.42-10.2,13-18.01,22.71-23.44,9.72-5.42,20.81-8.13,33.28-8.13s23.6,2.71,32.91,8.13c9.31,5.43,16.39,12.64,21.25,21.62,4.86,8.99,7.29,18.67,7.29,29.03,0,5.82-.17,10.2-.49,13.11Zm-16.64-38.62c-4.62-8.09-10.9-14.12-18.83-18.09-7.93-3.97-16.51-5.95-25.74-5.95s-17.78,1.98-25.63,5.95c-7.86,3.97-14.25,10-19.19,18.09-4.94,8.1-7.57,17.98-7.89,29.63h103.47c.48-11.66-1.58-21.54-6.2-29.63Z"/>
        <path class="cls-1" d="m2108.66,130.35c9.87,9.64,14.82,23.93,14.82,42.87v77.24h-10.69v-76.51c0-15.71-3.97-27.73-11.9-36.07-7.94-8.34-18.7-12.51-32.31-12.51s-25.63,4.54-34.12,13.6c-8.5,9.07-12.75,22.51-12.75,40.32v71.17h-10.93V118.57h10.93v27.93c3.72-9.87,9.91-17.44,18.58-22.71,8.66-5.26,18.66-7.9,30-7.9,15.7,0,28.5,4.82,38.38,14.45Z"/>
        <path class="cls-1" d="m2160.99,148.45c5.42-10.2,12.95-18.01,22.59-23.44,9.63-5.42,20.69-8.13,33.16-8.13,16.51,0,30.07,4.12,40.68,12.39,10.61,8.26,17.21,19.35,19.8,33.27h-11.42c-2.1-11.33-7.57-20.24-16.39-26.72-8.82-6.47-19.71-9.71-32.67-9.71-9.72,0-18.54,2.15-26.47,6.43-7.94,4.3-14.29,10.85-19.07,19.68-4.78,8.83-7.16,19.55-7.16,32.18s2.38,23.57,7.16,32.31c4.77,8.75,11.13,15.3,19.07,19.68,7.93,4.37,16.75,6.56,26.47,6.56,12.95,0,23.84-3.23,32.67-9.71,8.83-6.47,14.29-15.39,16.39-26.72h11.42c-2.59,13.76-9.23,24.86-19.92,33.27-10.69,8.42-24.21,12.63-40.56,12.63-12.47,0-23.52-2.75-33.16-8.26-9.64-5.51-17.17-13.4-22.59-23.68-5.42-10.28-8.14-22.3-8.14-36.07s2.72-25.74,8.14-35.95Z"/>
        <path class="cls-1" d="m2307.1,86.63c-1.78-1.7-2.67-4.01-2.67-6.92,0-2.76.88-5.02,2.67-6.81,1.78-1.78,3.97-2.67,6.56-2.67s4.78.89,6.56,2.67c1.78,1.79,2.67,4.05,2.67,6.81,0,2.92-.89,5.22-2.67,6.92-1.78,1.7-3.97,2.55-6.56,2.55s-4.77-.85-6.56-2.55Zm11.9,31.94v131.89h-10.93V118.57h10.93Z"/>
        <path class="cls-1" d="m2357.98,148.69c5.42-10.2,12.95-18.05,22.59-23.56,9.63-5.5,20.6-8.26,32.91-8.26,13.92,0,25.74,3.4,35.46,10.2,9.72,6.81,16.52,15.47,20.41,25.99v-34.49h10.93v131.89h-10.93v-34.73c-3.89,10.68-10.73,19.47-20.53,26.35-9.8,6.89-21.58,10.32-35.34,10.32-12.31,0-23.28-2.79-32.91-8.38-9.64-5.58-17.17-13.51-22.59-23.8-5.42-10.28-8.14-22.23-8.14-35.83s2.72-25.5,8.14-35.71Zm104.21,5.22c-4.78-8.82-11.3-15.62-19.56-20.4-8.26-4.77-17.49-7.16-27.68-7.16s-20.08,2.31-28.18,6.92c-8.1,4.62-14.41,11.3-18.94,20.04-4.53,8.75-6.8,19.11-6.8,31.09s2.27,22.35,6.8,31.09c4.53,8.75,10.89,15.47,19.07,20.16,8.17,4.7,17.53,7.05,28.06,7.05s19.47-2.39,27.81-7.16c8.34-4.77,14.85-11.58,19.55-20.4,4.7-8.83,7.05-19.07,7.05-30.73s-2.39-21.65-7.16-30.48Z"/>
        <path class="cls-1" d="m2525.57,242.69c-9.31-6.47-14.53-15.7-15.66-27.69h11.17c.81,8.59,4.74,15.39,11.78,20.4,7.05,5.02,16.64,7.53,28.78,7.53,10.04,0,18.01-2.55,23.93-7.65,5.91-5.11,8.86-11.38,8.86-18.83,0-5.18-1.58-9.43-4.73-12.75-3.16-3.32-7.09-5.87-11.78-7.65-4.7-1.78-11.1-3.72-19.19-5.83-9.71-2.59-17.57-5.14-23.56-7.65-5.99-2.51-11.1-6.27-15.3-11.3-4.21-5.02-6.31-11.74-6.31-20.16,0-6.16,1.86-11.86,5.59-17.13,3.72-5.26,8.91-9.43,15.55-12.51,6.64-3.07,14.16-4.62,22.59-4.62,13.76,0,24.9,3.44,33.4,10.32,8.5,6.88,13.08,16.39,13.73,28.54h-10.93c-.49-8.75-3.89-15.87-10.2-21.38-6.31-5.5-15.06-8.26-26.23-8.26-9.39,0-17.16,2.43-23.32,7.28-6.16,4.86-9.23,10.77-9.23,17.74,0,6.16,1.74,11.14,5.22,14.94,3.48,3.81,7.77,6.72,12.87,8.75,5.11,2.02,11.86,4.17,20.28,6.43,9.23,2.43,16.64,4.82,22.23,7.16,5.58,2.35,10.32,5.76,14.21,10.2,3.88,4.46,5.82,10.4,5.82,17.85,0,6.8-1.86,12.95-5.58,18.46-3.73,5.51-8.91,9.8-15.55,12.87-6.65,3.07-14.09,4.62-22.35,4.62-14.74,0-26.76-3.23-36.07-9.71Z"/>
        <path class="cls-1" d="m2813.53,118.57v131.89h-10.93v-28.67c-3.73,10.05-9.92,17.69-18.58,22.96-8.66,5.26-18.58,7.89-29.75,7.89-15.71,0-28.54-4.82-38.5-14.45-9.96-9.64-14.94-23.93-14.94-42.88v-76.75h10.69v76.03c0,15.71,3.97,27.73,11.9,36.07,7.93,8.34,18.7,12.51,32.31,12.51s25.63-4.53,34.12-13.6c8.5-9.07,12.75-22.51,12.75-40.33v-70.68h10.93Zm-34.49-40.81l-47.61,30.12v-8.99l47.61-31.82v10.68Z"/>
        <path class="cls-1" d="m2948.82,130.35c9.87,9.64,14.82,23.93,14.82,42.87v77.24h-10.69v-76.51c0-15.71-3.97-27.73-11.9-36.07-7.94-8.34-18.7-12.51-32.31-12.51s-25.63,4.54-34.12,13.6c-8.5,9.07-12.75,22.51-12.75,40.32v71.17h-10.93V118.57h10.93v27.93c3.72-9.87,9.91-17.44,18.58-22.71,8.66-5.26,18.66-7.9,30-7.9,15.7,0,28.5,4.82,38.38,14.45Z"/>
        <path class="cls-1" d="m2998.84,86.63c-1.78-1.7-2.67-4.01-2.67-6.92,0-2.76.88-5.02,2.67-6.81,1.78-1.78,3.97-2.67,6.56-2.67s4.78.89,6.56,2.67c1.78,1.79,2.67,4.05,2.67,6.81,0,2.92-.89,5.22-2.67,6.92-1.78,1.7-3.97,2.55-6.56,2.55s-4.77-.85-6.56-2.55Zm11.9,31.94v131.89h-10.93V118.57h10.93Z"/>
        <path class="cls-1" d="m3049.73,148.45c5.42-10.2,12.95-18.01,22.59-23.44,9.63-5.42,20.69-8.13,33.16-8.13,16.51,0,30.07,4.12,40.68,12.39,10.61,8.26,17.21,19.35,19.8,33.27h-11.42c-2.1-11.33-7.57-20.24-16.39-26.72-8.82-6.47-19.71-9.71-32.67-9.71-9.72,0-18.54,2.15-26.47,6.43-7.94,4.3-14.29,10.85-19.07,19.68-4.78,8.83-7.16,19.55-7.16,32.18s2.38,23.57,7.16,32.31c4.77,8.75,11.13,15.3,19.07,19.68,7.93,4.37,16.75,6.56,26.47,6.56,12.95,0,23.84-3.23,32.67-9.71,8.83-6.47,14.29-15.39,16.39-26.72h11.42c-2.59,13.76-9.23,24.86-19.92,33.27-10.69,8.42-24.21,12.63-40.56,12.63-12.47,0-23.52-2.75-33.16-8.26-9.64-5.51-17.17-13.4-22.59-23.68-5.42-10.28-8.14-22.3-8.14-36.07s2.72-25.74,8.14-35.95Z"/>
        <path class="cls-1" d="m3198.14,148.69c5.42-10.2,12.95-18.05,22.59-23.56,9.63-5.5,20.6-8.26,32.91-8.26,13.92,0,25.74,3.4,35.46,10.2,9.72,6.81,16.52,15.47,20.41,25.99v-34.49h10.93v131.89h-10.93v-34.73c-3.89,10.68-10.73,19.47-20.53,26.35-9.8,6.89-21.58,10.32-35.34,10.32-12.31,0-23.28-2.79-32.91-8.38-9.64-5.58-17.17-13.51-22.59-23.8-5.42-10.28-8.14-22.23-8.14-35.83s2.72-25.5,8.14-35.71Zm104.21,5.22c-4.78-8.82-11.3-15.62-19.56-20.4-8.26-4.77-17.49-7.16-27.68-7.16s-20.08,2.31-28.18,6.92c-8.1,4.62-14.41,11.3-18.94,20.04-4.53,8.75-6.8,19.11-6.8,31.09s2.27,22.35,6.8,31.09c4.53,8.75,10.89,15.47,19.07,20.16,8.17,4.7,17.53,7.05,28.06,7.05s19.47-2.39,27.81-7.16c8.34-4.77,14.85-11.58,19.55-20.4,4.7-8.83,7.05-19.07,7.05-30.73s-2.39-21.65-7.16-30.48Z"/>
        <path class="cls-1" d="m3365.73,242.69c-9.31-6.47-14.53-15.7-15.66-27.69h11.17c.81,8.59,4.74,15.39,11.78,20.4,7.05,5.02,16.64,7.53,28.78,7.53,10.04,0,18.01-2.55,23.93-7.65,5.91-5.11,8.86-11.38,8.86-18.83,0-5.18-1.58-9.43-4.73-12.75-3.16-3.32-7.09-5.87-11.78-7.65-4.7-1.78-11.1-3.72-19.19-5.83-9.71-2.59-17.57-5.14-23.56-7.65-5.99-2.51-11.1-6.27-15.3-11.3-4.21-5.02-6.31-11.74-6.31-20.16,0-6.16,1.86-11.86,5.59-17.13,3.72-5.26,8.91-9.43,15.55-12.51,6.64-3.07,14.16-4.62,22.59-4.62,13.76,0,24.9,3.44,33.4,10.32,8.5,6.88,13.08,16.39,13.73,28.54h-10.93c-.49-8.75-3.89-15.87-10.2-21.38-6.31-5.5-15.06-8.26-26.23-8.26-9.39,0-17.16,2.43-23.32,7.28-6.16,4.86-9.23,10.77-9.23,17.74,0,6.16,1.74,11.14,5.22,14.94,3.48,3.81,7.77,6.72,12.87,8.75,5.11,2.02,11.86,4.17,20.28,6.43,9.23,2.43,16.64,4.82,22.23,7.16,5.58,2.35,10.32,5.76,14.21,10.2,3.88,4.46,5.82,10.4,5.82,17.85,0,6.8-1.86,12.95-5.58,18.46-3.73,5.51-8.91,9.8-15.55,12.87-6.65,3.07-14.09,4.62-22.35,4.62-14.74,0-26.76-3.23-36.07-9.71Z"/>
      </g>
    </g>
  </g>
</svg>